<svg id="crochet" xmlns="http://www.w3.org/2000/svg" viewBox="0 0 24 24">
    <defs>
        <style>.cls-1{fill:#1f2029;}</style>
    </defs>
    <title>logo_prim_dark_24x24_2</title>
    <path class="cls-1"
        d="M9.59,18l-.43.74c-.39.67-.78,1.34-1.16,2s-.66,1.13-1,1.7l-.89,1.53A.09.09,0,0,1,6,24h-5l5.34-9.26-.08-.05L.06,8.44A.2.2,0,0,1,0,8.29V7H4.55a.22.22,0,0,1,.11,0L16.94,19.31l.08.05V24H15.69a.16.16,0,0,1-.13-.06L9.65,18ZM7,0h1.3s.06,0,.09.06l3.11,3.11L14.27,6l.06.07c.13-.21.24-.41.35-.6l.75-1.29,1.46-2.55L17.78.06a.11.11,0,0,1,.1-.06h5Q20.2,4.62,17.54,9.22l.06.07,6.29,6.28.11.09V17H19.43a.21.21,0,0,1-.18-.08l-1.51-1.51L7.05,4.75A.24.24,0,0,1,7,4.59c0-1.5,0-3,0-4.49Z"
        transform="translate(0)" />
</svg>